<svg width="11" height="20" viewBox="0 0 11 20" fill="none" xmlns="http://www.w3.org/2000/svg">
<path d="M11 0.791725C11 0.648066 10.9473 0.510291 10.8536 0.408708C10.7598 0.307126 10.6326 0.250058 10.5 0.250058H8C6.74112 0.182123 5.5086 0.656732 4.57172 1.57019C3.63485 2.48364 3.06978 3.76168 3 5.12506V8.05006H0.5C0.367392 8.05006 0.240215 8.10713 0.146447 8.20871C0.0526785 8.31029 0 8.44806 0 8.59172V11.4084C0 11.552 0.0526785 11.6898 0.146447 11.7914C0.240215 11.893 0.367392 11.9501 0.5 11.9501H3V19.2084C3 19.352 3.05268 19.4898 3.14645 19.5914C3.24021 19.693 3.36739 19.7501 3.5 19.7501H6.5C6.63261 19.7501 6.75979 19.693 6.85355 19.5914C6.94732 19.4898 7 19.352 7 19.2084V11.9501H9.62C9.73119 11.9518 9.83974 11.9133 9.92848 11.8407C10.0172 11.7681 10.0811 11.6656 10.11 11.5492L10.83 8.73256C10.8499 8.65252 10.8526 8.56861 10.8378 8.48728C10.8231 8.40595 10.7913 8.32937 10.7449 8.26344C10.6985 8.19751 10.6388 8.14399 10.5704 8.107C10.5019 8.07 10.4265 8.05052 10.35 8.05006H7V5.12506C7.02487 4.85691 7.14111 4.60843 7.32602 4.42814C7.51093 4.24786 7.75123 4.14871 8 4.15006H10.5C10.6326 4.15006 10.7598 4.09299 10.8536 3.99141C10.9473 3.88982 11 3.75205 11 3.60839V0.791725Z" fill="#2C3131"/>
</svg>
