<svg width="18" height="17" viewBox="0 0 18 17" fill="none" xmlns="http://www.w3.org/2000/svg">
<path d="M2.25 3.9668C3.49264 3.9668 4.5 3.12187 4.5 2.07959C4.5 1.03731 3.49264 0.192383 2.25 0.192383C1.00736 0.192383 0 1.03731 0 2.07959C0 3.12187 1.00736 3.9668 2.25 3.9668Z" fill="#2C3131"/>
<path d="M0.375009 6.22949H4.12499C4.3321 6.22949 4.5 6.36676 4.5 6.53608V15.7335C4.5 15.9028 4.3321 16.04 4.12499 16.04H0.375009C0.167905 16.04 0 15.9027 0 15.7334V6.53605C0 6.36673 0.167905 6.22949 0.375009 6.22949Z" fill="#2C3131"/>
<path d="M15.3675 4.91569C13.7664 4.49974 12.0452 4.76006 10.6773 5.62507C10.6357 5.47718 10.4893 5.3739 10.3219 5.3744H6.66562C6.4637 5.3744 6.29999 5.52365 6.29999 5.70776V15.7081C6.29999 15.8923 6.4637 16.0415 6.66562 16.0415H10.3219C10.5238 16.0415 10.6875 15.8923 10.6875 15.7081V8.52118C11.2158 8.06729 11.9798 7.92387 12.6619 8.15051C13.3028 8.43918 13.6813 9.05914 13.6125 9.70791V15.7081C13.6125 15.8923 13.7762 16.0415 13.9781 16.0415H17.6344C17.8363 16.0415 18 15.8923 18 15.7081V9.03654C17.9583 6.29709 16.5448 5.28305 15.3675 4.91569Z" fill="#2C3131"/>
</svg>
