<svg width="22" height="17" viewBox="0 0 22 17" fill="none" xmlns="http://www.w3.org/2000/svg">
<path d="M22 2.83038C21.3874 3.6385 20.6358 4.32738 19.7452 4.89703C19.754 5.0498 19.7584 5.22248 19.7584 5.41505C19.7584 6.48505 19.5825 7.55633 19.2306 8.62891C18.8788 9.7015 18.3414 10.7282 17.6184 11.7089C16.8954 12.6896 16.0342 13.5584 15.0347 14.3154C14.0353 15.0723 12.8339 15.6759 11.4306 16.126C10.0273 16.5762 8.5233 16.8013 6.91866 16.8013C4.41435 16.8013 2.10813 16.2017 0 15.0026C0.374169 15.0395 0.733028 15.058 1.07658 15.058C3.16872 15.058 5.03735 14.4865 6.68245 13.3436C5.70697 13.3277 4.83336 13.0615 4.06161 12.5447C3.28986 12.028 2.75876 11.3677 2.46831 10.5639C2.7554 10.6124 3.03875 10.6366 3.31836 10.6366C3.72083 10.6366 4.11686 10.5901 4.50645 10.497C3.46543 10.3121 2.60182 9.85228 1.91562 9.11756C1.22943 8.38285 0.886343 7.53485 0.886343 6.57357V6.52403C1.52532 6.83778 2.20689 7.00467 2.93106 7.0247C2.31437 6.66011 1.82543 6.18467 1.46423 5.59839C1.10302 5.0121 0.922406 4.37764 0.922406 3.69499C0.922406 2.97503 1.12584 2.30462 1.53272 1.68374C2.6648 2.91574 4.03656 3.9004 5.64799 4.6377C7.25944 5.37502 8.98822 5.78451 10.8343 5.86616C10.7556 5.57515 10.7162 5.27148 10.716 4.95513C10.716 3.85055 11.1568 2.90741 12.0384 2.1257C12.9199 1.34398 13.9835 0.953125 15.229 0.953125C16.5331 0.953125 17.6315 1.37422 18.5243 2.2164C19.5443 2.03722 20.4994 1.71313 21.3896 1.24413C21.0466 2.20125 20.3858 2.9396 19.4071 3.45919C20.3066 3.3644 21.171 3.15479 22 2.83038Z" fill="#2C3131"/>
</svg>
