<svg width="110" height="86" viewBox="0 0 110 86" fill="none" xmlns="http://www.w3.org/2000/svg">
<path d="M67.9584 49.2869C67.9584 47.6429 66.5033 46.3102 64.7084 46.3102C62.9134 46.3102 61.4584 47.6429 61.4584 49.2869C61.4584 50.9309 62.9134 52.2637 64.7084 52.2637C66.5033 52.2637 67.9584 50.9309 67.9584 49.2869Z" fill="#4270C9"/>
<ellipse rx="3.25" ry="2.97674" transform="matrix(1 0 0 -1 42.25 42.9769)" fill="#4270C9"/>
<ellipse rx="3.25" ry="2.97674" transform="matrix(1 0 0 -1 22.25 27.9769)" fill="#4270C9"/>
<ellipse rx="3.25" ry="2.97674" transform="matrix(1 0 0 -1 9.25 2.97687)" fill="#4270C9"/>
<ellipse rx="3.25" ry="2.97674" transform="matrix(1 0 0 -1 50.0834 27.9534)" fill="#4270C9"/>
<ellipse rx="3.25" ry="2.97674" transform="matrix(1 0 0 -1 39.25 24.9769)" fill="#4270C9"/>
<ellipse rx="3.25" ry="2.97674" transform="matrix(1 0 0 -1 67.9584 83.0233)" fill="#4270C9"/>
<ellipse rx="6" ry="5.5" transform="matrix(1 0 0 -1 94 79.5)" fill="#4270C9"/>
<ellipse rx="3.25" ry="2.97674" transform="matrix(1 0 0 -1 36.25 73.9769)" fill="#4270C9"/>
<ellipse rx="3.25" ry="2.97674" transform="matrix(1 0 0 -1 12.25 56.9769)" fill="#4270C9"/>
<ellipse rx="3.25" ry="2.97674" transform="matrix(1 0 0 -1 3.25 27.9769)" fill="#4270C9"/>
<ellipse rx="3.25" ry="2.97674" transform="matrix(1 0 0 -1 53.25 59.9769)" fill="#4270C9"/>
</svg>
