<svg width="263" height="268" viewBox="0 0 263 268" fill="none" xmlns="http://www.w3.org/2000/svg">
<ellipse cx="3.16564" cy="4.48094" rx="3.16564" ry="3.55516" fill="#949ED2" fill-opacity="0.5"/>
<ellipse cx="3.16564" cy="32.9224" rx="3.16564" ry="3.55516" fill="#949ED2" fill-opacity="0.5"/>
<ellipse cx="27.2245" cy="4.48094" rx="3.16564" ry="3.55516" fill="#949ED2" fill-opacity="0.5"/>
<ellipse cx="27.2245" cy="32.9224" rx="3.16564" ry="3.55516" fill="#949ED2" fill-opacity="0.5"/>
<ellipse cx="48.7508" cy="4.48094" rx="3.16564" ry="3.55516" fill="#949ED2" fill-opacity="0.5"/>
<ellipse cx="48.7508" cy="32.9224" rx="3.16564" ry="3.55516" fill="#949ED2" fill-opacity="0.5"/>
<ellipse cx="70.2771" cy="4.48094" rx="3.16564" ry="3.55516" fill="#949ED2" fill-opacity="0.5"/>
<ellipse cx="70.2771" cy="32.9224" rx="3.16564" ry="3.55516" fill="#949ED2" fill-opacity="0.5"/>
<ellipse cx="90.5372" cy="4.48094" rx="3.16564" ry="3.55516" fill="#949ED2" fill-opacity="0.5"/>
<ellipse cx="90.5372" cy="32.9224" rx="3.16564" ry="3.55516" fill="#949ED2" fill-opacity="0.5"/>
<ellipse cx="113.33" cy="4.48094" rx="3.16564" ry="3.55516" fill="#949ED2" fill-opacity="0.5"/>
<ellipse cx="113.33" cy="32.9224" rx="3.16564" ry="3.55516" fill="#949ED2" fill-opacity="0.5"/>
<ellipse cx="137.389" cy="4.48094" rx="3.16564" ry="3.55516" fill="#949ED2" fill-opacity="0.5"/>
<ellipse cx="137.389" cy="32.9224" rx="3.16564" ry="3.55516" fill="#949ED2" fill-opacity="0.5"/>
<ellipse cx="160.181" cy="4.48094" rx="3.16564" ry="3.55516" fill="#949ED2" fill-opacity="0.5"/>
<ellipse cx="160.181" cy="32.9224" rx="3.16564" ry="3.55516" fill="#949ED2" fill-opacity="0.5"/>
<ellipse cx="182.974" cy="4.48094" rx="3.16564" ry="3.55516" fill="#949ED2" fill-opacity="0.5"/>
<ellipse cx="182.974" cy="32.9224" rx="3.16564" ry="3.55516" fill="#949ED2" fill-opacity="0.5"/>
<ellipse cx="207.033" cy="4.48094" rx="3.16564" ry="3.55516" fill="#949ED2" fill-opacity="0.5"/>
<ellipse cx="207.033" cy="32.9224" rx="3.16564" ry="3.55516" fill="#949ED2" fill-opacity="0.5"/>
<ellipse cx="232.358" cy="4.48094" rx="3.16564" ry="3.55516" fill="#949ED2" fill-opacity="0.5"/>
<ellipse cx="232.358" cy="32.9224" rx="3.16564" ry="3.55516" fill="#949ED2" fill-opacity="0.5"/>
<ellipse cx="258.949" cy="4.48094" rx="3.16564" ry="3.55516" fill="#949ED2" fill-opacity="0.5"/>
<ellipse cx="258.949" cy="32.9224" rx="3.16564" ry="3.55516" fill="#949ED2" fill-opacity="0.5"/>
<ellipse cx="3.16564" cy="62.3433" rx="3.16564" ry="3.55516" fill="#949ED2" fill-opacity="0.5"/>
<ellipse cx="3.16564" cy="90.7847" rx="3.16564" ry="3.55516" fill="#949ED2" fill-opacity="0.5"/>
<ellipse cx="27.2245" cy="62.3433" rx="3.16564" ry="3.55516" fill="#949ED2" fill-opacity="0.5"/>
<ellipse cx="27.2245" cy="90.7847" rx="3.16564" ry="3.55516" fill="#949ED2" fill-opacity="0.5"/>
<ellipse cx="48.7508" cy="62.3433" rx="3.16564" ry="3.55516" fill="#949ED2" fill-opacity="0.5"/>
<ellipse cx="48.7508" cy="90.7847" rx="3.16564" ry="3.55516" fill="#949ED2" fill-opacity="0.5"/>
<ellipse cx="70.2771" cy="62.3433" rx="3.16564" ry="3.55516" fill="#949ED2" fill-opacity="0.5"/>
<ellipse cx="70.2771" cy="90.7847" rx="3.16564" ry="3.55516" fill="#949ED2" fill-opacity="0.5"/>
<ellipse cx="90.5372" cy="62.3433" rx="3.16564" ry="3.55516" fill="#949ED2" fill-opacity="0.5"/>
<ellipse cx="90.5372" cy="90.7847" rx="3.16564" ry="3.55516" fill="#949ED2" fill-opacity="0.5"/>
<ellipse cx="113.33" cy="62.3433" rx="3.16564" ry="3.55516" fill="#949ED2" fill-opacity="0.5"/>
<ellipse cx="113.33" cy="90.7847" rx="3.16564" ry="3.55516" fill="#949ED2" fill-opacity="0.5"/>
<ellipse cx="137.389" cy="62.3433" rx="3.16564" ry="3.55516" fill="#949ED2" fill-opacity="0.5"/>
<ellipse cx="137.389" cy="90.7847" rx="3.16564" ry="3.55516" fill="#949ED2" fill-opacity="0.5"/>
<ellipse cx="160.181" cy="62.3433" rx="3.16564" ry="3.55516" fill="#949ED2" fill-opacity="0.5"/>
<ellipse cx="160.181" cy="90.7847" rx="3.16564" ry="3.55516" fill="#949ED2" fill-opacity="0.5"/>
<ellipse cx="182.974" cy="62.3433" rx="3.16564" ry="3.55516" fill="#949ED2" fill-opacity="0.5"/>
<ellipse cx="182.974" cy="90.7847" rx="3.16564" ry="3.55516" fill="#949ED2" fill-opacity="0.5"/>
<ellipse cx="207.033" cy="62.3433" rx="3.16564" ry="3.55516" fill="#949ED2" fill-opacity="0.5"/>
<ellipse cx="207.033" cy="90.7847" rx="3.16564" ry="3.55516" fill="#949ED2" fill-opacity="0.5"/>
<ellipse cx="232.358" cy="62.3433" rx="3.16564" ry="3.55516" fill="#949ED2" fill-opacity="0.5"/>
<ellipse cx="232.358" cy="90.7847" rx="3.16564" ry="3.55516" fill="#949ED2" fill-opacity="0.5"/>
<ellipse cx="258.949" cy="62.3433" rx="3.16564" ry="3.55516" fill="#949ED2" fill-opacity="0.5"/>
<ellipse cx="258.949" cy="90.7847" rx="3.16564" ry="3.55516" fill="#949ED2" fill-opacity="0.5"/>
<ellipse cx="3.16564" cy="120.205" rx="3.16564" ry="3.55516" fill="#949ED2" fill-opacity="0.5"/>
<ellipse cx="3.16564" cy="148.646" rx="3.16564" ry="3.55516" fill="#949ED2" fill-opacity="0.5"/>
<ellipse cx="27.2245" cy="120.205" rx="3.16564" ry="3.55516" fill="#949ED2" fill-opacity="0.5"/>
<ellipse cx="27.2245" cy="148.646" rx="3.16564" ry="3.55516" fill="#949ED2" fill-opacity="0.5"/>
<ellipse cx="48.7508" cy="120.205" rx="3.16564" ry="3.55516" fill="#949ED2" fill-opacity="0.5"/>
<ellipse cx="48.7508" cy="148.646" rx="3.16564" ry="3.55516" fill="#949ED2" fill-opacity="0.5"/>
<ellipse cx="70.2771" cy="120.205" rx="3.16564" ry="3.55516" fill="#949ED2" fill-opacity="0.5"/>
<ellipse cx="70.2771" cy="148.646" rx="3.16564" ry="3.55516" fill="#949ED2" fill-opacity="0.5"/>
<ellipse cx="90.5372" cy="120.205" rx="3.16564" ry="3.55516" fill="#949ED2" fill-opacity="0.5"/>
<ellipse cx="90.5372" cy="148.646" rx="3.16564" ry="3.55516" fill="#949ED2" fill-opacity="0.5"/>
<ellipse cx="113.33" cy="120.205" rx="3.16564" ry="3.55516" fill="#949ED2" fill-opacity="0.5"/>
<ellipse cx="113.33" cy="148.646" rx="3.16564" ry="3.55516" fill="#949ED2" fill-opacity="0.5"/>
<ellipse cx="137.389" cy="120.205" rx="3.16564" ry="3.55516" fill="#949ED2" fill-opacity="0.5"/>
<ellipse cx="137.389" cy="148.646" rx="3.16564" ry="3.55516" fill="#949ED2" fill-opacity="0.5"/>
<ellipse cx="160.181" cy="120.205" rx="3.16564" ry="3.55516" fill="#949ED2" fill-opacity="0.5"/>
<ellipse cx="160.181" cy="148.646" rx="3.16564" ry="3.55516" fill="#949ED2" fill-opacity="0.5"/>
<ellipse cx="182.974" cy="120.205" rx="3.16564" ry="3.55516" fill="#949ED2" fill-opacity="0.5"/>
<ellipse cx="182.974" cy="148.646" rx="3.16564" ry="3.55516" fill="#949ED2" fill-opacity="0.5"/>
<ellipse cx="207.033" cy="120.205" rx="3.16564" ry="3.55516" fill="#949ED2" fill-opacity="0.5"/>
<ellipse cx="207.033" cy="148.646" rx="3.16564" ry="3.55516" fill="#949ED2" fill-opacity="0.5"/>
<ellipse cx="232.358" cy="120.205" rx="3.16564" ry="3.55516" fill="#949ED2" fill-opacity="0.5"/>
<ellipse cx="232.358" cy="148.646" rx="3.16564" ry="3.55516" fill="#949ED2" fill-opacity="0.5"/>
<ellipse cx="258.949" cy="120.205" rx="3.16564" ry="3.55516" fill="#949ED2" fill-opacity="0.5"/>
<ellipse cx="258.949" cy="148.646" rx="3.16564" ry="3.55516" fill="#949ED2" fill-opacity="0.5"/>
<ellipse cx="3.16564" cy="178.067" rx="3.16564" ry="3.55516" fill="#949ED2" fill-opacity="0.5"/>
<ellipse cx="3.16564" cy="206.508" rx="3.16564" ry="3.55516" fill="#949ED2" fill-opacity="0.5"/>
<ellipse cx="27.2245" cy="178.067" rx="3.16564" ry="3.55516" fill="#949ED2" fill-opacity="0.5"/>
<ellipse cx="27.2245" cy="206.508" rx="3.16564" ry="3.55516" fill="#949ED2" fill-opacity="0.5"/>
<ellipse cx="48.7508" cy="178.067" rx="3.16564" ry="3.55516" fill="#949ED2" fill-opacity="0.5"/>
<ellipse cx="48.7508" cy="206.508" rx="3.16564" ry="3.55516" fill="#949ED2" fill-opacity="0.5"/>
<ellipse cx="70.2771" cy="178.067" rx="3.16564" ry="3.55516" fill="#949ED2" fill-opacity="0.5"/>
<ellipse cx="70.2771" cy="206.508" rx="3.16564" ry="3.55516" fill="#949ED2" fill-opacity="0.5"/>
<ellipse cx="90.5372" cy="178.067" rx="3.16564" ry="3.55516" fill="#949ED2" fill-opacity="0.5"/>
<ellipse cx="90.5372" cy="206.508" rx="3.16564" ry="3.55516" fill="#949ED2" fill-opacity="0.5"/>
<ellipse cx="113.33" cy="178.067" rx="3.16564" ry="3.55516" fill="#949ED2" fill-opacity="0.5"/>
<ellipse cx="113.33" cy="206.508" rx="3.16564" ry="3.55516" fill="#949ED2" fill-opacity="0.5"/>
<ellipse cx="137.389" cy="178.067" rx="3.16564" ry="3.55516" fill="#949ED2" fill-opacity="0.5"/>
<ellipse cx="137.389" cy="206.508" rx="3.16564" ry="3.55516" fill="#949ED2" fill-opacity="0.5"/>
<ellipse cx="160.181" cy="178.067" rx="3.16564" ry="3.55516" fill="#949ED2" fill-opacity="0.5"/>
<ellipse cx="160.181" cy="206.508" rx="3.16564" ry="3.55516" fill="#949ED2" fill-opacity="0.5"/>
<ellipse cx="182.974" cy="178.067" rx="3.16564" ry="3.55516" fill="#949ED2" fill-opacity="0.5"/>
<ellipse cx="182.974" cy="206.508" rx="3.16564" ry="3.55516" fill="#949ED2" fill-opacity="0.5"/>
<ellipse cx="207.033" cy="178.067" rx="3.16564" ry="3.55516" fill="#949ED2" fill-opacity="0.5"/>
<ellipse cx="207.033" cy="206.508" rx="3.16564" ry="3.55516" fill="#949ED2" fill-opacity="0.5"/>
<ellipse cx="232.358" cy="178.067" rx="3.16564" ry="3.55516" fill="#949ED2" fill-opacity="0.5"/>
<ellipse cx="232.358" cy="206.508" rx="3.16564" ry="3.55516" fill="#949ED2" fill-opacity="0.5"/>
<ellipse cx="258.949" cy="178.067" rx="3.16564" ry="3.55516" fill="#949ED2" fill-opacity="0.5"/>
<ellipse cx="258.949" cy="206.508" rx="3.16564" ry="3.55516" fill="#949ED2" fill-opacity="0.5"/>
<ellipse cx="3.16564" cy="235.93" rx="3.16564" ry="3.55516" fill="#949ED2" fill-opacity="0.5"/>
<ellipse cx="3.16564" cy="264.371" rx="3.16564" ry="3.55516" fill="#949ED2" fill-opacity="0.5"/>
<ellipse cx="27.2245" cy="235.93" rx="3.16564" ry="3.55516" fill="#949ED2" fill-opacity="0.5"/>
<ellipse cx="27.2245" cy="264.371" rx="3.16564" ry="3.55516" fill="#949ED2" fill-opacity="0.5"/>
<ellipse cx="48.7508" cy="235.93" rx="3.16564" ry="3.55516" fill="#949ED2" fill-opacity="0.5"/>
<ellipse cx="48.7508" cy="264.371" rx="3.16564" ry="3.55516" fill="#949ED2" fill-opacity="0.5"/>
<ellipse cx="70.2771" cy="235.93" rx="3.16564" ry="3.55516" fill="#949ED2" fill-opacity="0.5"/>
<ellipse cx="70.2771" cy="264.371" rx="3.16564" ry="3.55516" fill="#949ED2" fill-opacity="0.5"/>
<ellipse cx="90.5372" cy="235.93" rx="3.16564" ry="3.55516" fill="#949ED2" fill-opacity="0.5"/>
<ellipse cx="90.5372" cy="264.371" rx="3.16564" ry="3.55516" fill="#949ED2" fill-opacity="0.5"/>
<ellipse cx="113.33" cy="235.93" rx="3.16564" ry="3.55516" fill="#949ED2" fill-opacity="0.5"/>
<ellipse cx="113.33" cy="264.371" rx="3.16564" ry="3.55516" fill="#949ED2" fill-opacity="0.5"/>
<ellipse cx="137.389" cy="235.93" rx="3.16564" ry="3.55516" fill="#949ED2" fill-opacity="0.5"/>
<ellipse cx="137.389" cy="264.371" rx="3.16564" ry="3.55516" fill="#949ED2" fill-opacity="0.5"/>
<ellipse cx="160.181" cy="235.93" rx="3.16564" ry="3.55516" fill="#949ED2" fill-opacity="0.5"/>
<ellipse cx="160.181" cy="264.371" rx="3.16564" ry="3.55516" fill="#949ED2" fill-opacity="0.5"/>
<ellipse cx="182.974" cy="235.93" rx="3.16564" ry="3.55516" fill="#949ED2" fill-opacity="0.5"/>
<ellipse cx="182.974" cy="264.371" rx="3.16564" ry="3.55516" fill="#949ED2" fill-opacity="0.5"/>
<ellipse cx="207.033" cy="235.93" rx="3.16564" ry="3.55516" fill="#949ED2" fill-opacity="0.5"/>
<ellipse cx="207.033" cy="264.371" rx="3.16564" ry="3.55516" fill="#949ED2" fill-opacity="0.5"/>
<ellipse cx="232.358" cy="235.93" rx="3.16564" ry="3.55516" fill="#949ED2" fill-opacity="0.5"/>
<ellipse cx="232.358" cy="264.371" rx="3.16564" ry="3.55516" fill="#949ED2" fill-opacity="0.5"/>
<ellipse cx="258.949" cy="235.93" rx="3.16564" ry="3.55516" fill="#949ED2" fill-opacity="0.5"/>
<ellipse cx="258.949" cy="264.371" rx="3.16564" ry="3.55516" fill="#949ED2" fill-opacity="0.5"/>
</svg>
