<svg width="21" height="18" viewBox="0 0 21 18" fill="none" xmlns="http://www.w3.org/2000/svg">
<path fill-rule="evenodd" clip-rule="evenodd" d="M10.3649 0.614792C10.4811 0.498384 10.619 0.406027 10.7709 0.343011C10.9227 0.279995 11.0855 0.247559 11.2499 0.247559C11.4144 0.247559 11.5772 0.279995 11.729 0.343011C11.8809 0.406027 12.0188 0.498384 12.1349 0.614792L19.6349 8.11479C19.7514 8.23091 19.8437 8.36884 19.9067 8.52071C19.9697 8.67257 20.0022 8.83537 20.0022 8.99979C20.0022 9.16421 19.9697 9.32701 19.9067 9.47888C19.8437 9.63074 19.7514 9.76868 19.6349 9.88479L12.1349 17.3848C11.9002 17.6195 11.5819 17.7514 11.2499 17.7514C10.918 17.7514 10.5997 17.6195 10.3649 17.3848C10.1302 17.1501 9.99837 16.8317 9.99837 16.4998C9.99837 16.1679 10.1302 15.8495 10.3649 15.6148L16.9824 8.99979L10.3649 2.38479C10.2485 2.26868 10.1562 2.13074 10.0932 1.97888C10.0301 1.82701 9.99771 1.66421 9.99771 1.49979C9.99771 1.33537 10.0301 1.17257 10.0932 1.02071C10.1562 0.868845 10.2485 0.730906 10.3649 0.614792Z" fill="white"/>
<path fill-rule="evenodd" clip-rule="evenodd" d="M-6.10352e-05 9C-6.10352e-05 8.66848 0.131635 8.35054 0.366056 8.11612C0.600476 7.8817 0.918418 7.75 1.24994 7.75H17.4999C17.8315 7.75 18.1494 7.8817 18.3838 8.11612C18.6182 8.35054 18.7499 8.66848 18.7499 9C18.7499 9.33152 18.6182 9.64946 18.3838 9.88388C18.1494 10.1183 17.8315 10.25 17.4999 10.25H1.24994C0.918418 10.25 0.600476 10.1183 0.366056 9.88388C0.131635 9.64946 -6.10352e-05 9.33152 -6.10352e-05 9Z" fill="white"/>
</svg>
